<svg width="131" height="29" viewBox="0 0 131 29" fill="none" xmlns="http://www.w3.org/2000/svg">
<path d="M7.21484 2.28439C7.21484 1.07896 8.19317 0.109375 9.38987 0.109375C10.5953 0.109375 11.5649 1.0877 11.5649 2.28439V13.736C11.5649 14.9414 10.5953 15.911 9.38987 15.911C8.18443 15.911 7.21484 14.9327 7.21484 13.736V2.28439Z" fill="#FF003C"/>
<path d="M18.0833 12.7927C16.7906 12.0415 15.9258 10.6351 15.9258 9.03661C15.9258 7.39443 16.8342 5.97063 18.1707 5.22815L23.0012 2.44168C23.3156 2.26698 23.6738 2.1709 24.0581 2.1709C25.2636 2.1709 26.2332 3.14922 26.2332 4.34591C26.2332 5.14953 25.7964 5.85707 25.1413 6.23267L21.3066 8.44263C21.0969 8.55619 20.9572 8.7833 20.9572 9.03661C20.9572 9.28993 21.0882 9.5083 21.2891 9.62186L25.1238 11.8406C25.7789 12.2162 26.2244 12.9237 26.2244 13.736C26.2244 14.9415 25.2461 15.9111 24.0494 15.9111C23.6476 15.9111 23.2807 15.8062 22.9575 15.6228L18.0833 12.7927Z" fill="#FF003C"/>
<path d="M31.6068 20.2172C28.2002 25.5019 22.4525 28.9784 15.9274 28.9784C9.43724 28.9784 3.70704 25.5368 0.300361 20.2958C-0.249948 19.4485 -0.0141024 18.3043 0.841934 17.7539C1.66303 17.2211 2.75492 17.4307 3.33143 18.2169C6.17033 22.104 10.7562 24.6284 15.9361 24.6284C21.116 24.6284 25.7107 22.0952 28.5496 18.2082C29.0999 17.4657 30.1394 17.2298 30.9604 17.7103C31.8165 18.2169 32.1135 19.3437 31.6068 20.2172Z" fill="#FF003C"/>
<path d="M60.6088 10.4346C57.2458 10.4346 54.5117 13.2036 54.5117 16.6102C54.5117 20.0256 57.2458 22.8033 60.6088 22.8033C63.9893 22.8033 66.7321 20.0256 66.7321 16.6102C66.7321 13.2036 63.9893 10.4346 60.6088 10.4346ZM63.439 16.6015C63.439 18.3747 62.2335 19.7199 60.635 19.7199C59.0103 19.7199 57.7786 18.3834 57.7786 16.6015C57.7786 14.837 59.0015 13.5093 60.635 13.5093C62.2335 13.5093 63.439 14.837 63.439 16.6015Z" fill="#323232"/>
<path d="M75.5482 10.4346C74.3952 10.4346 73.3819 10.7927 72.6394 11.474C72.587 11.5177 72.5259 11.5439 72.4647 11.5264C72.4298 11.5177 72.3686 11.5002 72.325 11.4304C72.0454 10.9499 71.5301 10.6704 70.8924 10.6704C69.9578 10.6704 69.2852 11.3605 69.2852 12.3039V20.9253C69.2852 21.4057 69.4599 21.8338 69.7656 22.1307C70.0626 22.4103 70.4644 22.5588 70.9186 22.5588C70.9536 22.5588 70.9885 22.5588 71.0234 22.5588C71.8795 22.5151 72.5521 21.7988 72.5521 20.9253V15.8415C72.5521 14.4003 73.3644 13.5093 74.6747 13.5093C75.985 13.5093 76.7973 14.4003 76.7973 15.8415V20.9253C76.7973 21.8687 77.4612 22.5413 78.4133 22.5588C78.8501 22.5675 79.2693 22.4015 79.5838 22.0958C79.907 21.7813 80.0904 21.3446 80.0904 20.8904V15.4135C80.0817 12.3912 78.2997 10.4346 75.5482 10.4346Z" fill="#323232"/>
<path d="M89.9129 19.362C89.6247 19.362 89.3364 19.4493 89.0569 19.5367C88.7774 19.624 88.4804 19.7201 88.1747 19.7201C87.7379 19.7201 87.3361 19.5978 87.3361 18.7418V13.7978C87.3361 13.6842 87.4234 13.5969 87.537 13.5969H89.2404C90.0877 13.5969 90.6816 12.9941 90.6816 12.1294C90.6816 11.2646 90.0877 10.6619 89.2404 10.6619H87.4933C87.3798 10.6619 87.2924 10.5745 87.2924 10.461V9.43025C87.2924 8.97603 87.109 8.53055 86.7858 8.21609C86.4713 7.90163 86.0608 7.72693 85.624 7.73566C84.6806 7.7444 84.0255 8.42573 84.0255 9.39532V10.461C84.0255 10.5745 83.9382 10.6619 83.8246 10.6619H83.1433C82.2785 10.6619 81.6758 11.2559 81.6758 12.1032C81.6758 12.9854 82.2785 13.5969 83.1433 13.5969H83.7984C83.912 13.5969 83.9993 13.6842 83.9993 13.7978V18.4098C83.9993 21.1963 85.4668 22.8035 88.0349 22.8035C89.9479 22.8035 91.2844 21.9213 91.2844 20.646C91.2844 20.0258 90.8563 19.362 89.9129 19.362Z" fill="#323232"/>
<path d="M103.078 10.6704C102.371 10.6354 101.803 10.9411 101.506 11.4914C101.471 11.5526 101.41 11.5788 101.384 11.5788C101.323 11.5875 101.253 11.5701 101.2 11.5264C100.362 10.7927 99.3049 10.4258 98.0383 10.4258C94.8151 10.4258 92.3867 13.0812 92.3867 16.6014C92.3867 20.1304 94.8151 22.7945 98.0383 22.7945C99.27 22.7945 100.318 22.4102 101.165 21.6677C101.218 21.6241 101.296 21.5979 101.366 21.6153C101.401 21.6241 101.462 21.6415 101.497 21.7114C101.768 22.2355 102.31 22.5587 102.956 22.5587C103.393 22.5674 103.803 22.3927 104.118 22.087C104.441 21.7726 104.616 21.3445 104.616 20.8991V12.3038C104.616 11.4303 103.943 10.714 103.078 10.6704ZM101.323 16.6014C101.323 18.3746 100.117 19.7198 98.5187 19.7198C96.894 19.7198 95.6624 18.3834 95.6624 16.6014C95.6624 14.837 96.8853 13.5092 98.5187 13.5092C100.117 13.5092 101.323 14.837 101.323 16.6014Z" fill="#323232"/>
<path d="M128.636 19.362C128.347 19.362 128.059 19.4493 127.78 19.5367C127.5 19.624 127.203 19.7201 126.897 19.7201C126.461 19.7201 126.059 19.5978 126.059 18.7418V13.7978C126.059 13.6842 126.146 13.5969 126.26 13.5969H127.963C128.81 13.5969 129.404 12.9941 129.404 12.1294C129.404 11.2646 128.81 10.6619 127.963 10.6619H126.216C126.102 10.6619 126.015 10.5745 126.015 10.461V9.43025C126.015 8.97603 125.832 8.53055 125.508 8.21609C125.194 7.90163 124.783 7.72693 124.347 7.73566C123.403 7.7444 122.748 8.42573 122.748 9.39532V10.4697C122.748 10.5833 122.661 10.6706 122.547 10.6706H121.866C121.001 10.6706 120.398 11.2646 120.398 12.1119C120.398 12.9941 121.001 13.6056 121.866 13.6056H122.521C122.635 13.6056 122.722 13.6929 122.722 13.8065V18.4186C122.722 21.205 124.189 22.8123 126.758 22.8123C128.671 22.8123 130.007 21.93 130.007 20.6547C130.007 20.0258 129.579 19.362 128.636 19.362Z" fill="#323232"/>
<path d="M109.521 6.28516C108.587 6.28516 107.914 6.97522 107.914 7.9186V20.925C107.914 21.8859 108.587 22.5585 109.548 22.5585C110.508 22.5585 111.181 21.8859 111.181 20.925V7.9186C111.181 6.95775 110.5 6.28516 109.521 6.28516Z" fill="#323232"/>
<path d="M118.284 19.9028L115.943 16.863C115.829 16.7145 115.829 16.5049 115.943 16.3477L118.284 13.3079C118.869 12.5479 118.747 11.5958 117.97 11.0018C117.227 10.4341 116.275 10.5651 115.698 11.3163L113.681 13.9368L113.043 14.7579C112.204 15.8498 112.204 17.3697 113.043 18.4615L113.681 19.2826L115.698 21.9031C116.284 22.6631 117.227 22.7854 117.987 22.2001C118.756 21.6061 118.869 20.6628 118.284 19.9028Z" fill="#323232"/>
<path d="M43.7791 6.28516C42.8445 6.28516 42.1719 6.97522 42.1719 7.9186V20.925C42.1719 21.8859 42.8445 22.5585 43.8053 22.5585C44.7662 22.5585 45.4388 21.8859 45.4388 20.925V7.9186C45.4388 6.95775 44.7575 6.28516 43.7791 6.28516Z" fill="#323232"/>
<path d="M52.5301 19.9028L50.1891 16.863C50.0756 16.7145 50.0756 16.5049 50.1891 16.3477L52.5301 13.3079C53.1154 12.5479 52.9931 11.5958 52.2157 11.0018C51.4732 10.4341 50.5211 10.5651 49.9445 11.3163L47.9267 13.9368L47.2891 14.7579C46.4505 15.8498 46.4505 17.3697 47.2891 18.4615L47.9267 19.2826L49.9445 21.9031C50.5298 22.6631 51.4732 22.7854 52.2331 22.2001C53.0018 21.6061 53.1241 20.6628 52.5301 19.9028Z" fill="#323232"/>
</svg>
